<?xml version="1.0" encoding="iso-8859-1"?>
<!-- Uploaded to: SVG Repo, www.svgrepo.com, Generator: SVG Repo Mixer Tools -->
<svg height="800px" width="800px" version="1.1" id="Layer_1" xmlns="http://www.w3.org/2000/svg" xmlns:xlink="http://www.w3.org/1999/xlink" 
	 viewBox="0 0 512 512" xml:space="preserve">
<path style="fill:#7CD8A4;" d="M259.288,280.33c0,0-48.407,6.46-98.819-11.574S76.73,215.025,76.73,215.025
	s48.407-6.46,98.819,11.574S259.288,280.33,259.288,280.33z"/>
<path style="opacity:0.35;fill:#328777;enable-background:new    ;" d="M92.783,213.936c12.589,11.421,39.95,33.435,76.102,46.368
	c32.622,11.669,64.398,13.082,82.767,12.626c4.966,4.504,7.636,7.364,7.636,7.364s-48.407,6.46-98.819-11.574
	S76.73,214.987,76.73,214.987S82.765,214.185,92.783,213.936z"/>
<g>
	<path style="fill:#7CD8A4;" d="M259.288,347.886c0,0-48.407,6.46-98.819-11.574S76.73,282.581,76.73,282.581
		s48.407-6.46,98.819,11.574S259.288,347.886,259.288,347.886z"/>
	<path style="fill:#7CD8A4;" d="M259.288,415.443c0,0-48.407,6.46-98.819-11.574S76.73,350.138,76.73,350.138
		s48.407-6.46,98.819,11.574S259.288,415.443,259.288,415.443z"/>
	<path style="fill:#7CD8A4;" d="M259.288,483.382c0,0-48.407,6.46-98.819-11.574c-50.412-18.033-83.739-53.731-83.739-53.731
		s48.407-6.46,98.819,11.574S259.288,483.382,259.288,483.382z"/>
	<path style="fill:#7CD8A4;" d="M255.879,206.574c0,0-40.94,4.497-81.085-13.306s-64.297-51.164-64.297-51.164
		s40.94-4.497,81.085,13.306S255.879,206.574,255.879,206.574z"/>
</g>
<g>
	<path style="opacity:0.35;fill:#328777;enable-background:new    ;" d="M125.722,141.621c9.765,11.014,29.873,30.763,57.641,43.077
		c25.009,11.091,50.323,13.527,65.86,13.787c4.353,4.91,6.657,8.087,6.657,8.087s-40.94,4.497-81.085-13.306
		s-64.297-51.164-64.297-51.164S116.319,141.464,125.722,141.621z"/>
	<path style="opacity:0.35;fill:#328777;enable-background:new    ;" d="M92.783,281.492c12.589,11.421,39.95,33.435,76.102,46.368
		c32.622,11.669,64.398,13.082,82.767,12.626c4.966,4.504,7.636,7.364,7.636,7.364s-48.407,6.46-98.819-11.574
		S76.73,282.543,76.73,282.543S82.765,281.74,92.783,281.492z"/>
	<path style="opacity:0.35;fill:#328777;enable-background:new    ;" d="M92.783,349.049c12.589,11.421,39.95,33.435,76.102,46.368
		c32.622,11.669,64.398,13.082,82.767,12.626c4.966,4.504,7.636,7.364,7.636,7.364s-48.407,6.46-98.819-11.574
		C110.057,385.799,76.73,350.1,76.73,350.1S82.765,349.297,92.783,349.049z"/>
	<path style="opacity:0.35;fill:#328777;enable-background:new    ;" d="M92.783,416.987c12.589,11.421,39.95,33.435,76.102,46.368
		c32.622,11.669,64.398,13.082,82.767,12.626c4.966,4.504,7.636,7.364,7.636,7.364s-48.407,6.46-98.819-11.574
		S76.73,418.039,76.73,418.039S82.765,417.236,92.783,416.987z"/>
</g>
<path style="fill:#7CD8A4;" d="M256.121,199.339c0,0-20.707-44.493-20.707-99.376s20.707-99.376,20.707-99.376
	s20.707,44.493,20.707,99.376S256.121,199.339,256.121,199.339z"/>
<path style="opacity:0.35;fill:#328777;enable-background:new    ;" d="M255.535,0c0,0-1.248,2.684-3.129,7.537
	c6.052,17.905,14.03,47.965,14.03,82.034c0,41.418-11.791,76.914-17.578,91.839c3.697,10.938,6.677,17.342,6.677,17.342
	s20.707-44.492,20.707-99.376C276.242,44.493,255.535,0,255.535,0z"/>
<path style="fill:#7CD8A4;" d="M252.712,280.33c0,0,48.407,6.46,98.819-11.574s83.739-53.731,83.739-53.731
	s-48.407-6.46-98.819,11.574S252.712,280.33,252.712,280.33z"/>
<path style="opacity:0.35;fill:#328777;enable-background:new    ;" d="M419.217,213.936c-12.589,11.421-39.95,33.435-76.102,46.368
	c-32.622,11.669-64.398,13.082-82.767,12.626c-4.966,4.504-7.636,7.364-7.636,7.364s48.407,6.46,98.819-11.574
	s83.739-53.732,83.739-53.732S429.235,214.185,419.217,213.936z"/>
<g>
	<path style="fill:#7CD8A4;" d="M252.712,347.886c0,0,48.407,6.46,98.819-11.574s83.739-53.731,83.739-53.731
		s-48.407-6.46-98.819,11.574S252.712,347.886,252.712,347.886z"/>
	<path style="fill:#7CD8A4;" d="M252.712,415.443c0,0,48.407,6.46,98.819-11.574s83.739-53.731,83.739-53.731
		s-48.407-6.46-98.819,11.574S252.712,415.443,252.712,415.443z"/>
	<path style="fill:#7CD8A4;" d="M252.712,483.382c0,0,48.407,6.46,98.819-11.574c50.412-18.033,83.739-53.731,83.739-53.731
		s-48.407-6.46-98.819,11.574C286.038,447.684,252.712,483.382,252.712,483.382z"/>
	<path style="fill:#7CD8A4;" d="M256.121,206.574c0,0,40.94,4.497,81.085-13.306s64.297-51.164,64.297-51.164
		s-40.94-4.497-81.085,13.306S256.121,206.574,256.121,206.574z"/>
</g>
<g>
	<path style="opacity:0.35;fill:#328777;enable-background:new    ;" d="M386.278,141.621
		c-9.765,11.014-29.873,30.763-57.641,43.077c-25.009,11.091-50.323,13.527-65.86,13.787c-4.353,4.91-6.657,8.087-6.657,8.087
		s40.94,4.497,81.085-13.306s64.297-51.164,64.297-51.164S395.681,141.464,386.278,141.621z"/>
	<path style="fill:#328777;" d="M256.121,512c-4.265,0-7.722-3.456-7.722-7.722V199.339c0-4.266,3.457-7.722,7.722-7.722
		c4.265,0,7.721,3.456,7.721,7.722v304.939C263.842,508.543,260.386,512,256.121,512z"/>
	<path style="opacity:0.35;fill:#328777;enable-background:new    ;" d="M419.217,281.492
		c-12.589,11.421-39.95,33.435-76.102,46.368c-32.622,11.669-64.398,13.082-82.767,12.626c-4.966,4.504-7.636,7.364-7.636,7.364
		s48.407,6.46,98.819-11.574s83.739-53.732,83.739-53.732S429.235,281.74,419.217,281.492z"/>
	<path style="opacity:0.35;fill:#328777;enable-background:new    ;" d="M419.217,349.049
		c-12.589,11.421-39.95,33.435-76.102,46.368c-32.622,11.669-64.398,13.082-82.767,12.626c-4.966,4.504-7.636,7.364-7.636,7.364
		s48.407,6.46,98.819-11.574c50.412-18.033,83.739-53.732,83.739-53.732S429.235,349.297,419.217,349.049z"/>
	<path style="opacity:0.35;fill:#328777;enable-background:new    ;" d="M419.217,416.987
		c-12.589,11.421-39.95,33.435-76.102,46.368c-32.622,11.669-64.398,13.082-82.767,12.626c-4.966,4.504-7.636,7.364-7.636,7.364
		s48.407,6.46,98.819-11.574s83.739-53.732,83.739-53.732S429.235,417.236,419.217,416.987z"/>
</g>
</svg>